HIERARCHY
ROOT hips
{
	OFFSET -0.003675 0.299928 -0.021708
	CHANNELS 6 Xposition Yposition Zposition Xrotation Yrotation Zrotation
	JOINT LowerBack
	{
		OFFSET 0.000919 0.177588 0.009275
		CHANNELS 3 Xrotation Yrotation Zrotation
		JOINT spine
		{
			OFFSET 0.000919 0.177588 0.009275
			CHANNELS 3 Xrotation Yrotation Zrotation
			JOINT chest
			{
				OFFSET 0.000456 0.100015 0.004638
				CHANNELS 3 Xrotation Yrotation Zrotation
				JOINT neck
				{
					OFFSET 0.000456 0.100015 0.004638
					CHANNELS 3 Xrotation Yrotation Zrotation
					JOINT head
					{
						OFFSET 0.000924 0.155147 0.009274
						CHANNELS 6 Xposition Yposition Zposition Xrotation Yrotation Zrotation
						End Site
						{
							OFFSET 0.000000 0.153400 0.000000
						}
					}
				}
				JOINT shoulder.L
				{
					OFFSET 0.019937 0.078966 0.057518
					CHANNELS 6 Xposition Yposition Zposition Yrotation Xrotation Zrotation
					JOINT upper_arm.L
					{
						OFFSET 0.177024 -0.020465 -0.095062
						CHANNELS 6 Xposition Yposition Zposition Xrotation Yrotation Zrotation
						JOINT forearm.L
						{
							OFFSET 0.247100 -0.135500 -0.061800
							CHANNELS 3 Xrotation Yrotation Zrotation
							JOINT hand.L
							{
								OFFSET 0.217000 -0.143000 0.039300
								CHANNELS 3 Xrotation Yrotation Zrotation
								JOINT palm.01.L
								{
									OFFSET 0.021770 -0.038291 0.012954
									CHANNELS 6 Xposition Yposition Zposition Yrotation Xrotation Zrotation
									JOINT f_index.01.L
									{
										OFFSET 0.053215 -0.044137 0.008236
										CHANNELS 3 Xrotation Yrotation Zrotation
										JOINT f_index.02.L
										{
											OFFSET 0.036108 -0.024723 -0.010656
											CHANNELS 3 Xrotation Yrotation Zrotation
											JOINT f_index.03.L
											{
												OFFSET 0.021342 -0.014948 -0.010846
												CHANNELS 3 Xrotation Yrotation Zrotation
												End Site
												{
													OFFSET 0.015600 -0.009860 -0.013421
												}
											}
										}
									}
									JOINT thumb.01.L
									{
										OFFSET -0.009090 -0.002348 -0.024223
										CHANNELS 6 Xposition Yposition Zposition Xrotation Yrotation Zrotation
										JOINT thumb.02.L
										{
											OFFSET 0.019713 -0.035076 -0.011120
											CHANNELS 3 Xrotation Yrotation Zrotation
											JOINT thumb.03.L
											{
												OFFSET 0.024877 -0.021748 -0.005176
												CHANNELS 3 Xrotation Yrotation Zrotation
												End Site
												{
													OFFSET 0.016125 -0.013029 -0.001569
												}
											}
										}
									}
								}
								JOINT palm.02.L
								{
									OFFSET 0.032823 -0.025104 0.012281
									CHANNELS 6 Xposition Yposition Zposition Yrotation Xrotation Zrotation
									JOINT f_middle.01.L
									{
										OFFSET 0.055723 -0.038469 0.008037
										CHANNELS 3 Xrotation Yrotation Zrotation
										JOINT f_middle.02.L
										{
											OFFSET 0.038167 -0.027473 -0.015582
											CHANNELS 3 Xrotation Yrotation Zrotation
											JOINT f_middle.03.L
											{
												OFFSET 0.021707 -0.016587 -0.017037
												CHANNELS 3 Xrotation Yrotation Zrotation
												End Site
												{
													OFFSET 0.014112 -0.010584 -0.014294
												}
											}
										}
									}
								}
								JOINT palm.03.L
								{
									OFFSET 0.039230 -0.011402 0.008390
									CHANNELS 6 Xposition Yposition Zposition Yrotation Xrotation Zrotation
									JOINT f_ring.01.L
									{
										OFFSET 0.061796 -0.031470 0.007910
										CHANNELS 3 Xrotation Yrotation Zrotation
										JOINT f_ring.02.L
										{
											OFFSET 0.033092 -0.023401 -0.019127
											CHANNELS 3 Xrotation Yrotation Zrotation
											JOINT f_ring.03.L
											{
												OFFSET 0.021392 -0.015362 -0.017824
												CHANNELS 3 Xrotation Yrotation Zrotation
												End Site
												{
													OFFSET 0.008670 -0.007297 -0.014686
												}
											}
										}
									}
								}
								JOINT palm.04.L
								{
									OFFSET 0.043417 0.002450 0.002889
									CHANNELS 6 Xposition Yposition Zposition Yrotation Xrotation Zrotation
									JOINT f_pinky.01.L
									{
										OFFSET 0.069986 -0.026156 0.003627
										CHANNELS 3 Xrotation Yrotation Zrotation
										JOINT f_pinky.02.L
										{
											OFFSET 0.018520 -0.012813 -0.016429
											CHANNELS 3 Xrotation Yrotation Zrotation
											JOINT f_pinky.03.L
											{
												OFFSET 0.013822 -0.009796 -0.014947
												CHANNELS 3 Xrotation Yrotation Zrotation
												End Site
												{
													OFFSET 0.007238 -0.006103 -0.011657
												}
											}
										}
									}
								}
							}
						}
					}
				}
				JOINT shoulder.R
				{
					OFFSET -0.016662 0.078957 0.057696
					CHANNELS 6 Xposition Yposition Zposition Yrotation Xrotation Zrotation
					JOINT upper_arm.R
					{
						OFFSET -0.176972 -0.020537 -0.095144
						CHANNELS 6 Xposition Yposition Zposition Xrotation Yrotation Zrotation
						JOINT forearm.R
						{
							OFFSET -0.247100 -0.135500 -0.061800
							CHANNELS 3 Xrotation Yrotation Zrotation
							JOINT hand.R
							{
								OFFSET -0.217000 -0.143000 0.039300
								CHANNELS 3 Xrotation Yrotation Zrotation
								JOINT palm.01.R
								{
									OFFSET -0.021773 -0.038278 0.012988
									CHANNELS 6 Xposition Yposition Zposition Yrotation Xrotation Zrotation
									JOINT f_index.01.R
									{
										OFFSET -0.053212 -0.044139 0.008249
										CHANNELS 3 Xrotation Yrotation Zrotation
										JOINT f_index.02.R
										{
											OFFSET -0.036049 -0.024835 -0.010634
											CHANNELS 3 Xrotation Yrotation Zrotation
											JOINT f_index.03.R
											{
												OFFSET -0.021371 -0.014881 -0.010866
												CHANNELS 3 Xrotation Yrotation Zrotation
												End Site
												{
													OFFSET -0.015584 -0.009883 -0.013422
												}
											}
										}
									}
									JOINT thumb.01.R
									{
										OFFSET 0.009113 -0.002381 -0.024211
										CHANNELS 6 Xposition Yposition Zposition Xrotation Yrotation Zrotation
										JOINT thumb.02.R
										{
											OFFSET -0.019694 -0.035097 -0.011088
											CHANNELS 3 Xrotation Yrotation Zrotation
											JOINT thumb.03.R
											{
												OFFSET -0.024867 -0.021762 -0.005168
												CHANNELS 3 Xrotation Yrotation Zrotation
												End Site
												{
													OFFSET -0.016120 -0.013036 -0.001565
												}
											}
										}
									}
								}
								JOINT palm.02.R
								{
									OFFSET -0.032828 -0.025095 0.012286
									CHANNELS 6 Xposition Yposition Zposition Yrotation Xrotation Zrotation
									JOINT f_middle.01.R
									{
										OFFSET -0.055721 -0.038472 0.008040
										CHANNELS 3 Xrotation Yrotation Zrotation
										JOINT f_middle.02.R
										{
											OFFSET -0.038101 -0.027593 -0.015557
											CHANNELS 3 Xrotation Yrotation Zrotation
											JOINT f_middle.03.R
											{
												OFFSET -0.021730 -0.016530 -0.017054
												CHANNELS 3 Xrotation Yrotation Zrotation
												End Site
												{
													OFFSET -0.014096 -0.010608 -0.014293
												}
											}
										}
									}
								}
								JOINT palm.03.R
								{
									OFFSET -0.039192 -0.011488 0.008390
									CHANNELS 6 Xposition Yposition Zposition Yrotation Xrotation Zrotation
									JOINT f_ring.01.R
									{
										OFFSET -0.061839 -0.031387 0.007876
										CHANNELS 3 Xrotation Yrotation Zrotation
										JOINT f_ring.02.R
										{
											OFFSET -0.033068 -0.023437 -0.019125
											CHANNELS 3 Xrotation Yrotation Zrotation
											JOINT f_ring.03.R
											{
												OFFSET -0.021371 -0.015393 -0.017822
												CHANNELS 3 Xrotation Yrotation Zrotation
												End Site
												{
													OFFSET -0.008654 -0.007321 -0.014684
												}
											}
										}
									}
								}
								JOINT palm.04.R
								{
									OFFSET -0.043421 0.002443 0.002845
									CHANNELS 6 Xposition Yposition Zposition Yrotation Xrotation Zrotation
									JOINT f_pinky.01.R
									{
										OFFSET -0.069983 -0.026169 0.003599
										CHANNELS 3 Xrotation Yrotation Zrotation
										JOINT f_pinky.02.R
										{
											OFFSET -0.018501 -0.012842 -0.016428
											CHANNELS 3 Xrotation Yrotation Zrotation
											JOINT f_pinky.03.R
											{
												OFFSET -0.013806 -0.009821 -0.014946
												CHANNELS 3 Xrotation Yrotation Zrotation
												End Site
												{
													OFFSET -0.007226 -0.006121 -0.011655
												}
											}
										}
									}
								}
							}
						}
					}
				}
			}
		}
	}
	JOINT pelvis.L
	{
		OFFSET 0.000000 0.000000 0.000000
		CHANNELS 6 Xposition Yposition Zposition Xrotation Yrotation Zrotation
		JOINT thigh.L
		{
			OFFSET 0.101675 0.001054 -0.000000
			CHANNELS 3 Xrotation Yrotation Zrotation
			JOINT shin.L
			{
				OFFSET 0.000000 -0.534800 0.041000
				CHANNELS 3 Xrotation Yrotation Zrotation
				JOINT foot.L
				{
					OFFSET 0.000000 -0.452000 -0.044800
					CHANNELS 3 Xrotation Yrotation Zrotation
					JOINT toe.L
					{
						OFFSET -0.000000 -0.068500 0.109600
						CHANNELS 3 Xrotation Yrotation Zrotation
						End Site
						{
							OFFSET -0.000000 0.000000 0.067200
						}
					}
				}
				JOINT heel.L
				{
					OFFSET 0.000000 -0.452000 -0.044800
					CHANNELS 3 Xrotation Yrotation Zrotation
					JOINT heel.02.L
					{
						OFFSET -0.038000 -0.085200 0.016200
						CHANNELS 6 Xposition Yposition Zposition Xrotation Yrotation Zrotation
						End Site
						{
							OFFSET 0.080000 -0.000000 0.000000
						}
					}
				}
			}
		}
	}
	JOINT pelvis.R
	{
		OFFSET 0.000000 0.000000 0.000000
		CHANNELS 6 Xposition Yposition Zposition Xrotation Yrotation Zrotation
		JOINT thigh.R
		{
			OFFSET -0.094325 0.001054 0.000000
			CHANNELS 3 Xrotation Yrotation Zrotation
			JOINT shin.R
			{
				OFFSET 0.000000 -0.534800 0.041000
				CHANNELS 3 Xrotation Yrotation Zrotation
				JOINT foot.R
				{
					OFFSET 0.000000 -0.452000 -0.044800
					CHANNELS 3 Xrotation Yrotation Zrotation
					JOINT toe.R
					{
						OFFSET -0.000000 -0.068500 0.109600
						CHANNELS 3 Xrotation Yrotation Zrotation
						End Site
						{
							OFFSET -0.000000 0.000000 0.067200
						}
					}
				}
				JOINT heel.R
				{
					OFFSET 0.000000 -0.452000 -0.044800
					CHANNELS 3 Xrotation Yrotation Zrotation
					JOINT heel.02.R
					{
						OFFSET 0.038000 -0.085200 0.016200
						CHANNELS 6 Xposition Yposition Zposition Xrotation Yrotation Zrotation
						End Site
						{
							OFFSET -0.080000 0.000000 -0.000000
						}
					}
				}
			}
		}
	}
}
MOTION
Frames: 4
Frame Time: 0.041667
-0.004201 0.291856 -0.011530 -0.778468 -1.235991 -1.023037 -0.000000 0.000000 -0.000000 0.000000 0.000000 0.000000 0.000000 -0.000000 0.000000 0.000000 -0.000000 0.000000 0.000924 0.155147 0.009274 7.140369 -0.006669 2.132604 0.019937 0.078966 0.057518 -3.224757 5.867467 30.053509 0.177024 -0.020465 -0.095062 -34.047953 15.668449 -66.032384 -32.674054 42.465642 -125.978113 -0.000000 -0.000001 0.000005 0.021770 -0.038291 0.012954 0.000004 -0.000005 -0.000000 -0.000004 -0.000001 -0.000000 0.000003 -0.000004 0.000006 0.000006 0.000002 0.000002 -0.009090 -0.002348 -0.024223 -0.000005 -0.000003 0.000002 0.000001 -0.000004 -0.000001 0.000001 0.000000 0.000003 0.032823 -0.025104 0.012281 0.000000 -0.000003 0.000002 -0.000003 0.000000 -0.000007 -0.000003 -0.000006 -0.000000 0.000001 0.000001 0.000001 0.039230 -0.011402 0.008390 0.000001 -0.000004 0.000001 -0.000002 0.000004 0.000003 -0.000002 -0.000003 0.000004 -0.000001 0.000003 -0.000000 0.043417 0.002450 0.002889 0.000001 -0.000004 0.000000 -0.000001 -0.000002 0.000001 -0.000001 0.000003 0.000001 -0.000002 0.000003 0.000001 -0.016662 0.078957 0.057696 -0.929860 5.426096 -27.041045 -0.176972 -0.020537 -0.095144 -7.502211 -11.425078 70.069954 -6.204364 8.167023 15.562485 0.000001 0.000002 0.000005 -0.021773 -0.038278 0.012988 0.000000 -0.000003 -0.000005 -0.000001 0.000001 0.000001 0.000001 -0.000002 -0.000005 0.000002 -0.000002 0.000001 0.009113 -0.002381 -0.024211 -0.000000 -0.000000 0.000001 0.000001 -0.000001 -0.000003 -0.000000 0.000000 -0.000003 -0.032828 -0.025095 0.012286 -0.000001 -0.000003 -0.000001 0.000001 0.000003 -0.000004 0.000001 -0.000003 0.000001 -0.000004 0.000003 -0.000006 -0.039192 -0.011488 0.008390 0.000002 0.000001 -0.000004 -0.000001 0.000004 -0.000005 0.000001 0.000005 -0.000000 -0.000001 0.000002 -0.000003 -0.043421 0.002443 0.002845 -0.000001 -0.000001 -0.000001 -0.000005 0.000006 0.000001 -0.000001 -0.000003 -0.000003 -0.000003 0.000000 -0.000001 0.000000 0.000000 -0.000000 -1.123549 0.076218 -2.119047 13.082519 -0.268208 -3.920712 15.354120 -0.116443 1.177030 -0.000003 0.000001 0.000000 -0.000001 0.000001 0.000000 -0.000002 -0.000000 0.000000 -0.038000 -0.085200 0.016200 0.000004 0.000000 -0.000000 -0.000000 0.000000 0.000000 -1.097380 0.075522 -0.884912 11.413651 0.461602 6.467996 16.611199 0.194461 -1.961773 0.000002 0.000000 0.000000 0.000002 -0.000000 -0.000000 0.000007 -0.000000 0.000000 0.038000 -0.085200 0.016200 0.000000 -0.000000 -0.000000 
-0.004223 0.292346 -0.011338 -0.923982 -0.769892 -1.018961 0.000000 -0.000000 -0.000000 -0.000000 -0.000000 -0.000000 0.000000 0.000000 -0.000000 0.000000 0.000000 -0.000000 0.000924 0.155148 0.009274 6.683495 -0.005970 1.760661 0.019937 0.078966 0.057518 -3.029527 6.019180 30.241158 0.177025 -0.020465 -0.095062 -34.485181 15.560269 -65.639709 -32.937918 42.699447 -125.626057 -0.000003 0.000001 0.000001 0.021770 -0.038291 0.012954 0.000003 -0.000004 -0.000002 -0.000000 0.000001 -0.000000 -0.000000 -0.000006 0.000008 0.000003 0.000002 0.000002 -0.009090 -0.002348 -0.024223 0.000002 -0.000002 -0.000003 0.000002 -0.000002 0.000003 -0.000002 -0.000001 0.000001 0.032823 -0.025104 0.012281 -0.000001 -0.000003 0.000002 -0.000002 -0.000001 0.000002 -0.000004 -0.000002 0.000006 0.000000 -0.000006 0.000004 0.039230 -0.011402 0.008390 0.000002 -0.000003 0.000003 0.000003 0.000005 -0.000002 0.000001 0.000001 0.000003 0.000003 -0.000000 0.000003 0.043417 0.002450 0.002889 0.000000 -0.000002 -0.000005 -0.000003 -0.000006 0.000002 0.000002 0.000000 0.000001 -0.000001 -0.000001 -0.000000 -0.016662 0.078957 0.057696 -0.649744 5.549636 -27.296866 -0.176972 -0.020537 -0.095144 -7.393375 -11.386018 69.990813 -5.817048 7.836525 15.547952 -0.000001 0.000004 -0.000002 -0.021773 -0.038278 0.012988 0.000001 -0.000002 -0.000003 0.000000 0.000003 -0.000005 -0.000002 0.000001 -0.000009 0.000003 -0.000002 0.000001 0.009114 -0.002381 -0.024212 0.000001 0.000002 -0.000003 -0.000001 -0.000001 0.000005 0.000000 -0.000001 -0.000003 -0.032828 -0.025095 0.012286 0.000001 0.000000 0.000001 -0.000001 -0.000000 -0.000003 -0.000002 0.000001 0.000001 -0.000000 0.000006 -0.000005 -0.039192 -0.011488 0.008390 -0.000002 -0.000001 0.000001 0.000005 0.000000 -0.000003 -0.000001 -0.000000 -0.000002 -0.000000 0.000003 -0.000004 -0.043421 0.002443 0.002845 0.000001 0.000000 0.000002 -0.000001 0.000003 0.000003 -0.000001 -0.000003 0.000002 0.000001 -0.000004 0.000002 0.000000 0.000000 -0.000000 -1.110596 0.069335 -2.027926 13.278626 -0.267728 -3.922116 15.015718 -0.126563 1.279163 -0.000003 0.000000 0.000001 0.000001 0.000000 0.000000 -0.000002 -0.000000 0.000000 -0.038000 -0.085200 0.016200 -0.000003 0.000000 0.000001 0.000000 0.000000 -0.000000 -1.084899 0.068691 -0.793763 11.744019 0.462119 6.494447 16.215467 0.198434 -2.001891 0.000000 0.000000 0.000000 -0.000000 0.000000 0.000000 0.000003 0.000000 0.000000 0.038000 -0.085200 0.016200 -0.000002 0.000000 -0.000000 
-0.004038 0.290666 -0.012111 -1.124555 0.920356 -0.534139 -0.000000 0.000000 -0.000000 -0.000001 0.000000 0.000000 -0.000000 0.000000 -0.000000 -0.000000 0.000000 -0.000000 0.000924 0.155148 0.009274 7.268470 -0.006817 1.920899 0.019937 0.078966 0.057518 -2.718576 5.744842 29.656897 0.177025 -0.020465 -0.095062 -32.224532 15.943603 -67.619904 -42.486850 39.223495 -111.173425 -0.000001 -0.000001 -0.000000 0.021770 -0.038291 0.012954 0.000005 -0.000002 0.000001 -0.000002 0.000003 -0.000005 0.000003 0.000005 0.000005 -0.000002 0.000002 0.000002 -0.009090 -0.002348 -0.024223 0.000002 -0.000001 -0.000001 0.000002 -0.000006 0.000001 0.000002 -0.000001 -0.000001 0.032823 -0.025104 0.012281 0.000003 -0.000003 0.000004 0.000000 -0.000003 -0.000004 -0.000004 0.000001 -0.000002 -0.000003 -0.000004 0.000002 0.039230 -0.011402 0.008390 0.000000 -0.000002 0.000004 -0.000002 0.000000 -0.000002 -0.000001 0.000005 -0.000001 0.000003 0.000003 -0.000000 0.043417 0.002450 0.002889 -0.000002 -0.000001 -0.000005 -0.000004 -0.000008 -0.000000 -0.000002 0.000001 0.000001 -0.000002 -0.000001 -0.000000 -0.016662 0.078956 0.057696 -0.501185 5.319598 -26.999915 -0.176972 -0.020537 -0.095144 -7.420190 -11.421246 70.644933 -5.630747 7.798784 14.891107 0.000001 0.000002 0.000002 -0.021773 -0.038278 0.012988 0.000001 0.000001 -0.000005 -0.000004 0.000002 0.000001 -0.000002 0.000001 -0.000001 -0.000000 0.000000 0.000006 0.009114 -0.002381 -0.024211 -0.000001 -0.000001 0.000001 0.000000 0.000000 0.000000 0.000001 0.000000 -0.000003 -0.032828 -0.025095 0.012286 0.000002 0.000001 -0.000001 0.000002 0.000000 -0.000001 -0.000000 -0.000003 -0.000002 -0.000003 0.000003 -0.000003 -0.039192 -0.011488 0.008390 0.000001 0.000005 -0.000004 -0.000000 0.000001 0.000000 0.000001 0.000003 0.000004 0.000000 -0.000002 -0.000003 -0.043421 0.002443 0.002845 -0.000002 0.000002 -0.000001 -0.000005 0.000003 -0.000001 -0.000001 0.000000 0.000002 -0.000001 0.000003 0.000001 0.000000 0.000000 -0.000000 -1.130766 0.062913 -1.931798 12.600579 -0.288121 -4.160437 16.282567 -0.152481 1.540721 0.000000 0.000000 0.000000 0.000001 0.000000 0.000000 0.000002 0.000000 0.000000 -0.038000 -0.085200 0.016200 -0.000001 0.000000 0.000000 -0.000000 0.000000 0.000000 -1.104796 0.062306 -0.697626 11.274878 0.474020 6.625197 16.711328 0.234028 -2.361258 0.000003 0.000000 -0.000000 -0.000000 0.000000 0.000000 0.000002 0.000000 -0.000000 0.038000 -0.085200 0.016200 0.000001 0.000000 0.000000 
-0.002965 0.266766 -0.014589 -0.670719 0.490749 -0.182901 -0.000000 0.000000 0.000000 0.000000 -0.000000 0.000000 -0.000000 0.000000 0.000000 0.000000 0.000000 0.000000 0.000924 0.155147 0.009274 8.594504 -0.009749 1.931972 0.019937 0.078966 0.057518 -0.176987 3.970961 27.973479 0.177025 -0.020465 -0.095062 -20.866662 14.027927 -68.769323 -58.980692 3.901859 -67.368027 -0.000005 -0.000002 -0.000000 0.021770 -0.038291 0.012954 0.000000 -0.000000 -0.000000 0.000001 -0.000000 -0.000000 0.000003 -0.000004 0.000006 0.000004 0.000001 -0.000000 -0.009090 -0.002348 -0.024223 0.000005 -0.000003 -0.000003 0.000001 -0.000003 -0.000004 -0.000003 -0.000001 0.000003 0.032823 -0.025104 0.012281 -0.000001 -0.000002 0.000004 0.000006 -0.000001 -0.000004 -0.000003 -0.000006 0.000004 -0.000003 0.000005 0.000001 0.039230 -0.011402 0.008390 0.000000 -0.000002 0.000001 0.000004 0.000000 -0.000000 -0.000002 0.000003 0.000001 0.000002 -0.000003 0.000003 0.043417 0.002450 0.002889 -0.000000 -0.000003 -0.000002 -0.000005 0.000000 -0.000004 -0.000003 0.000001 -0.000003 0.000000 0.000001 0.000001 -0.016662 0.078957 0.057696 -1.106008 3.621574 -26.085170 -0.176972 -0.020537 -0.095144 -4.573627 -11.537404 69.122976 -7.582300 9.849814 14.330415 0.000001 0.000001 0.000000 -0.021773 -0.038278 0.012988 -0.000001 -0.000000 0.000002 -0.000003 0.000004 -0.000003 -0.000001 0.000001 -0.000004 -0.000002 0.000000 0.000004 0.009114 -0.002381 -0.024212 -0.000000 -0.000004 0.000002 0.000001 -0.000001 0.000002 -0.000001 -0.000001 -0.000003 -0.032828 -0.025095 0.012286 0.000001 -0.000000 -0.000001 0.000002 0.000005 0.000001 0.000001 -0.000003 0.000001 -0.000001 0.000004 0.000002 -0.039192 -0.011488 0.008390 0.000001 0.000001 0.000001 -0.000001 0.000004 -0.000007 -0.000001 0.000000 -0.000005 -0.000002 0.000001 0.000001 -0.043421 0.002443 0.002845 -0.000000 0.000000 -0.000001 -0.000005 0.000002 -0.000001 -0.000001 0.000002 -0.000000 0.000000 -0.000001 -0.000001 0.000000 0.000000 -0.000000 -1.394267 0.043881 -1.603102 11.505766 -0.299646 -4.303759 19.062517 -0.203058 2.051274 0.000003 0.000000 0.000000 0.000004 -0.000000 -0.000000 0.000003 0.000000 0.000000 -0.038000 -0.085200 0.016200 -0.000002 -0.000000 -0.000001 -0.000000 0.000000 -0.000000 -1.363052 0.043331 -0.368942 10.801615 0.456866 6.411035 19.442313 0.198134 -1.998818 0.000000 0.000001 -0.000000 0.000002 0.000000 0.000000 0.000002 0.000000 0.000000 0.038000 -0.085200 0.016200 0.000000 0.000000 0.000001 
